# xmcd
#
# Track frame offsets: 
#        150
#        16498
#        30635
#        44443
#        62324
#        93140
#        111131
#        139857
#        162545
#        183669
#        201070
#        216447
#        236083
#        253807
#        272211
#        297834
#
# Disc length: 4183 seconds
#
# Revision: 1
# Processed by: cddbd v1.5.2PL0 Copyright (c) Steve Scherf et al.
# Submitted via: ExactAudioCopy v0.90b4
#
DISCID=f0105510
DTITLE=Billie Holiday - Stormy Weather (4 Disc Set), Disc 2
DYEAR=2000
DGENRE=Blues
TTITLE0=P.S. I Love You
TTITLE1=Willow Weep For Me
TTITLE2=Say It Isn't So
TTITLE3=I've Got My Love To Keep Me Warm
TTITLE4=I Wished On The Moon
TTITLE5=Always
TTITLE6=Everything Happens To Me
TTITLE7=Do Nothin' Till You Hear From Me
TTITLE8=Ain't Misbehavin'
TTITLE9=Nice Work If You Can Get It
TTITLE10=Gone With The Wind
TTITLE11=Please Don't Talk About Me When I'm Gone
TTITLE12=Cheek To Cheek
TTITLE13=I Hadn't Anyone Till You
TTITLE14=I Get A Kick Out Of You
TTITLE15=A Fine Romance
EXTD=
EXTT0=
EXTT1=
EXTT2=
EXTT3=
EXTT4=
EXTT5=
EXTT6=
EXTT7=
EXTT8=
EXTT9=
EXTT10=
EXTT11=
EXTT12=
EXTT13=
EXTT14=
EXTT15=
PLAYORDER=
